<?xml version="1.0" standalone="no"?>
<!DOCTYPE svg PUBLIC "-//W3C//DTD SVG 20010904//EN"
 "http://www.w3.org/TR/2001/REC-SVG-20010904/DTD/svg10.dtd">
<svg version="1.0" xmlns="http://www.w3.org/2000/svg"
 width="1024.000000pt" height="1024.000000pt" viewBox="0 0 1024.000000 1024.000000"
 preserveAspectRatio="xMidYMid meet">

<g transform="translate(0.000000,1024.000000) scale(0.100000,-0.100000)"
fill="#000000" stroke="none">
<path d="M0 5120 l0 -5120 5120 0 5120 0 0 5120 0 5120 -5120 0 -5120 0 0
-5120z m5308 -47 l-3 -2588 -75 -3 c-97 -4 -326 22 -470 54 -781 172 -1429
677 -1780 1389 -273 553 -340 1177 -190 1776 213 849 852 1542 1680 1822 241
81 522 132 748 136 l92 1 -2 -2587z m2002 -55 l0 -1691 -107 6 c-232 14 -431
67 -643 173 -809 401 -1158 1359 -798 2189 150 347 442 657 778 825 229 115
469 176 733 188 l37 2 0 -1692z"/>
</g>
</svg>
